STARTFONT 2.1
FONT -Graphien90C-Regular-R-Regular--18-18-75-75-c-80-iso10646-1
SIZE 18 75 75
FONTBOUNDINGBOX 8 17 0 -4
STARTPROPERTIES 9
FAMILY_NAME "Graphien90C"
WEIGHT_NAME "Regular"
FONT_VERSION "Version 1.0"
FOUNDRY "Made with Bits'n'Picas by El1i0r"
FONT_ASCENT 14
FONT_DESCENT 4
POINT_SIZE 18
X_HEIGHT 8
CAP_HEIGHT 14
ENDPROPERTIES
CHARS 96
STARTCHAR U+0020
ENCODING 32
SWIDTH 1000 0
DWIDTH 8 0
BBX 0 0 0 0
BITMAP
ENDCHAR
STARTCHAR U+0021
ENCODING 33
SWIDTH 1000 0
DWIDTH 8 0
BBX 2 12 3 0
BITMAP
80
80
80
80
80
80
80
80
80
00
C0
80
ENDCHAR
STARTCHAR U+0022
ENCODING 34
SWIDTH 1000 0
DWIDTH 8 0
BBX 5 4 1 8
BITMAP
D8
D8
48
90
ENDCHAR
STARTCHAR U+0023
ENCODING 35
SWIDTH 1000 0
DWIDTH 8 0
BBX 8 12 0 0
BITMAP
60
60
66
66
FF
66
66
FF
66
66
06
06
ENDCHAR
STARTCHAR U+0024
ENCODING 36
SWIDTH 1000 0
DWIDTH 8 0
BBX 7 14 0 -1
BITMAP
10
7C
D6
D2
D0
F0
78
1C
1E
16
96
DC
78
10
ENDCHAR
STARTCHAR U+0025
ENCODING 37
SWIDTH 1000 0
DWIDTH 8 0
BBX 6 12 1 0
BITMAP
CC
CC
18
18
30
30
30
30
60
60
CC
CC
ENDCHAR
STARTCHAR U+0026
ENCODING 38
SWIDTH 1000 0
DWIDTH 8 0
BBX 7 12 0 0
BITMAP
7C
C6
C6
CC
D8
E2
36
D4
D8
CC
C6
7A
ENDCHAR
STARTCHAR U+0027
ENCODING 39
SWIDTH 1000 0
DWIDTH 8 0
BBX 2 4 2 8
BITMAP
C0
C0
40
80
ENDCHAR
STARTCHAR U+0028
ENCODING 40
SWIDTH 1000 0
DWIDTH 8 0
BBX 4 12 2 0
BITMAP
30
20
60
40
C0
80
80
C0
40
60
20
30
ENDCHAR
STARTCHAR U+0029
ENCODING 41
SWIDTH 1000 0
DWIDTH 8 0
BBX 4 12 2 0
BITMAP
C0
40
60
20
30
10
10
30
20
60
40
C0
ENDCHAR
STARTCHAR U+002A
ENCODING 42
SWIDTH 1000 0
DWIDTH 8 0
BBX 5 5 1 7
BITMAP
20
A8
70
A8
20
ENDCHAR
STARTCHAR U+002B
ENCODING 43
SWIDTH 1000 0
DWIDTH 8 0
BBX 7 7 0 0
BITMAP
10
10
10
FE
10
10
10
ENDCHAR
STARTCHAR U+002C
ENCODING 44
SWIDTH 1000 0
DWIDTH 8 0
BBX 2 4 3 -2
BITMAP
C0
C0
40
80
ENDCHAR
STARTCHAR U+002D
ENCODING 45
SWIDTH 1000 0
DWIDTH 8 0
BBX 7 1 0 2
BITMAP
FE
ENDCHAR
STARTCHAR U+002E
ENCODING 46
SWIDTH 1000 0
DWIDTH 8 0
BBX 2 2 3 0
BITMAP
C0
C0
ENDCHAR
STARTCHAR U+002F
ENCODING 47
SWIDTH 1000 0
DWIDTH 8 0
BBX 6 12 1 0
BITMAP
0C
0C
18
18
30
30
30
30
60
60
C0
C0
ENDCHAR
STARTCHAR U+0030
ENCODING 48
SWIDTH 1000 0
DWIDTH 8 0
BBX 7 12 0 0
BITMAP
38
44
C6
D6
D6
D6
D6
D6
D6
C6
44
38
ENDCHAR
STARTCHAR U+0031
ENCODING 49
SWIDTH 1000 0
DWIDTH 8 0
BBX 6 12 1 0
BITMAP
30
70
F0
B0
30
30
30
30
30
30
30
FC
ENDCHAR
STARTCHAR U+0032
ENCODING 50
SWIDTH 1000 0
DWIDTH 8 0
BBX 7 12 0 0
BITMAP
7C
C6
06
06
0E
3C
78
E0
C0
C0
DC
66
ENDCHAR
STARTCHAR U+0033
ENCODING 51
SWIDTH 1000 0
DWIDTH 8 0
BBX 7 12 0 0
BITMAP
7C
C6
06
06
06
3C
3C
06
06
06
C6
7C
ENDCHAR
STARTCHAR U+0034
ENCODING 52
SWIDTH 1000 0
DWIDTH 8 0
BBX 7 12 0 0
BITMAP
6C
6C
6C
6C
CC
CC
CC
FE
0C
0C
0C
0C
ENDCHAR
STARTCHAR U+0035
ENCODING 53
SWIDTH 1000 0
DWIDTH 8 0
BBX 7 12 0 0
BITMAP
FE
C0
C0
C0
C0
FC
06
06
06
06
C6
7C
ENDCHAR
STARTCHAR U+0036
ENCODING 54
SWIDTH 1000 0
DWIDTH 8 0
BBX 7 12 0 0
BITMAP
7C
C2
C0
C0
C0
DC
E6
C6
C6
C6
C6
7C
ENDCHAR
STARTCHAR U+0037
ENCODING 55
SWIDTH 1000 0
DWIDTH 8 0
BBX 7 12 0 0
BITMAP
FE
06
06
0C
0C
18
18
18
30
30
60
60
ENDCHAR
STARTCHAR U+0038
ENCODING 56
SWIDTH 1000 0
DWIDTH 8 0
BBX 7 12 0 0
BITMAP
7C
C6
C6
CC
D8
38
76
E6
C6
C6
C6
7C
ENDCHAR
STARTCHAR U+0039
ENCODING 57
SWIDTH 1000 0
DWIDTH 8 0
BBX 7 12 0 0
BITMAP
7C
C6
C6
C6
C6
CE
76
06
06
06
06
06
ENDCHAR
STARTCHAR U+003A
ENCODING 58
SWIDTH 1000 0
DWIDTH 8 0
BBX 2 5 2 0
BITMAP
C0
C0
00
C0
C0
ENDCHAR
STARTCHAR U+003B
ENCODING 59
SWIDTH 1000 0
DWIDTH 8 0
BBX 2 7 2 -2
BITMAP
C0
C0
00
C0
C0
40
80
ENDCHAR
STARTCHAR U+003C
ENCODING 60
SWIDTH 1000 0
DWIDTH 8 0
BBX 7 9 0 0
BITMAP
02
06
1C
70
C0
70
1C
06
02
ENDCHAR
STARTCHAR U+003D
ENCODING 61
SWIDTH 1000 0
DWIDTH 8 0
BBX 7 4 0 2
BITMAP
FE
00
00
FE
ENDCHAR
STARTCHAR U+003E
ENCODING 62
SWIDTH 1000 0
DWIDTH 8 0
BBX 7 9 1 0
BITMAP
80
C0
70
1C
06
1C
70
C0
80
ENDCHAR
STARTCHAR U+003F
ENCODING 63
SWIDTH 1000 0
DWIDTH 8 0
BBX 7 12 0 0
BITMAP
7C
C6
86
86
0C
0C
18
30
30
00
30
30
ENDCHAR
STARTCHAR U+0040
ENCODING 64
SWIDTH 1000 0
DWIDTH 8 0
BBX 8 12 0 0
BITMAP
7E
C3
C3
CF
DB
DB
DB
DB
DB
DE
C0
7E
ENDCHAR
STARTCHAR U+0041
ENCODING 65
SWIDTH 1000 0
DWIDTH 8 0
BBX 7 12 0 0
BITMAP
10
10
38
28
28
6C
6C
7C
C6
C6
C6
C6
ENDCHAR
STARTCHAR U+0042
ENCODING 66
SWIDTH 1000 0
DWIDTH 8 0
BBX 7 12 0 0
BITMAP
F8
C6
C6
C6
C6
F8
C6
C6
C6
C6
C6
F8
ENDCHAR
STARTCHAR U+0043
ENCODING 67
SWIDTH 1000 0
DWIDTH 8 0
BBX 7 12 0 0
BITMAP
3C
62
C0
C0
C0
C0
C0
C0
C0
C0
62
3C
ENDCHAR
STARTCHAR U+0044
ENCODING 68
SWIDTH 1000 0
DWIDTH 8 0
BBX 7 12 0 0
BITMAP
F8
C4
C6
C6
C6
C6
C6
C6
C6
C6
C4
F8
ENDCHAR
STARTCHAR U+0045
ENCODING 69
SWIDTH 1000 0
DWIDTH 8 0
BBX 7 12 0 0
BITMAP
FE
C0
C0
C0
C0
C0
FC
C0
C0
C0
C0
FE
ENDCHAR
STARTCHAR U+0046
ENCODING 70
SWIDTH 1000 0
DWIDTH 8 0
BBX 7 12 0 0
BITMAP
FE
C0
C0
C0
C0
C0
FC
C0
C0
C0
C0
C0
ENDCHAR
STARTCHAR U+0047
ENCODING 71
SWIDTH 1000 0
DWIDTH 8 0
BBX 7 12 0 0
BITMAP
3C
62
E0
C0
C0
C0
C0
CE
C6
E6
66
3C
ENDCHAR
STARTCHAR U+0048
ENCODING 72
SWIDTH 1000 0
DWIDTH 8 0
BBX 7 12 0 0
BITMAP
C6
C6
C6
C6
C6
C6
FE
C6
C6
C6
C6
C6
ENDCHAR
STARTCHAR U+0049
ENCODING 73
SWIDTH 1000 0
DWIDTH 8 0
BBX 6 12 1 0
BITMAP
FC
30
30
30
30
30
30
30
30
30
30
FC
ENDCHAR
STARTCHAR U+004A
ENCODING 74
SWIDTH 1000 0
DWIDTH 8 0
BBX 7 12 0 0
BITMAP
FE
0C
0C
0C
0C
0C
0C
CC
CC
CC
CC
38
ENDCHAR
STARTCHAR U+004B
ENCODING 75
SWIDTH 1000 0
DWIDTH 8 0
BBX 7 12 0 0
BITMAP
C6
C6
C6
C8
D0
E0
D0
C8
C6
C6
C6
C6
ENDCHAR
STARTCHAR U+004C
ENCODING 76
SWIDTH 1000 0
DWIDTH 8 0
BBX 7 12 0 0
BITMAP
C0
C0
C0
C0
C0
C0
C0
C0
C0
C0
C0
FE
ENDCHAR
STARTCHAR U+004D
ENCODING 77
SWIDTH 1000 0
DWIDTH 8 0
BBX 7 12 0 0
BITMAP
EE
EE
EE
EE
D6
D6
C6
C6
C6
C6
C6
C6
ENDCHAR
STARTCHAR U+004E
ENCODING 78
SWIDTH 1000 0
DWIDTH 8 0
BBX 7 12 0 0
BITMAP
E6
E6
E6
E6
E6
D6
D6
D6
CE
CE
CE
CE
ENDCHAR
STARTCHAR U+004F
ENCODING 79
SWIDTH 1000 0
DWIDTH 8 0
BBX 7 12 0 0
BITMAP
38
44
C6
C6
C6
C6
C6
C6
C6
C6
44
38
ENDCHAR
STARTCHAR U+0050
ENCODING 80
SWIDTH 1000 0
DWIDTH 8 0
BBX 7 12 0 0
BITMAP
FC
C6
C6
C6
C6
C6
FC
C0
C0
C0
C0
C0
ENDCHAR
STARTCHAR U+0051
ENCODING 81
SWIDTH 1000 0
DWIDTH 8 0
BBX 7 12 0 0
BITMAP
38
44
C6
C6
C6
C6
C6
C6
D4
C8
44
3A
ENDCHAR
STARTCHAR U+0052
ENCODING 82
SWIDTH 1000 0
DWIDTH 8 0
BBX 7 12 0 0
BITMAP
FC
C6
C6
C6
C6
C6
FC
D8
CC
C6
C6
C6
ENDCHAR
STARTCHAR U+0053
ENCODING 83
SWIDTH 1000 0
DWIDTH 8 0
BBX 7 12 0 0
BITMAP
7C
C6
C2
C0
E0
78
1C
0E
06
86
CC
78
ENDCHAR
STARTCHAR U+0054
ENCODING 84
SWIDTH 1000 0
DWIDTH 8 0
BBX 6 12 0 0
BITMAP
FC
30
30
30
30
30
30
30
30
30
30
30
ENDCHAR
STARTCHAR U+0055
ENCODING 85
SWIDTH 1000 0
DWIDTH 8 0
BBX 7 12 0 0
BITMAP
C6
C6
C6
C6
C6
C6
C6
C6
C6
C6
44
38
ENDCHAR
STARTCHAR U+0056
ENCODING 86
SWIDTH 1000 0
DWIDTH 8 0
BBX 7 12 0 0
BITMAP
C6
C6
C6
C6
C6
C6
C6
C6
44
6C
28
10
ENDCHAR
STARTCHAR U+0057
ENCODING 87
SWIDTH 1000 0
DWIDTH 8 0
BBX 7 12 0 0
BITMAP
C6
C6
C6
C6
D6
D6
D6
D6
D6
D6
D6
6C
ENDCHAR
STARTCHAR U+0058
ENCODING 88
SWIDTH 1000 0
DWIDTH 8 0
BBX 7 12 0 0
BITMAP
C6
C6
C6
C6
28
10
10
28
C6
C6
C6
C6
ENDCHAR
STARTCHAR U+0059
ENCODING 89
SWIDTH 1000 0
DWIDTH 8 0
BBX 6 12 1 0
BITMAP
CC
CC
CC
CC
CC
CC
78
30
30
30
30
30
ENDCHAR
STARTCHAR U+005A
ENCODING 90
SWIDTH 1000 0
DWIDTH 8 0
BBX 7 12 0 0
BITMAP
FE
06
06
06
0C
18
30
60
E0
CC
DE
F2
ENDCHAR
STARTCHAR U+005B
ENCODING 91
SWIDTH 1000 0
DWIDTH 8 0
BBX 6 12 1 0
BITMAP
FC
C0
C0
C0
C0
C0
C0
C0
C0
C0
C0
FC
ENDCHAR
STARTCHAR U+005C
ENCODING 92
SWIDTH 1000 0
DWIDTH 8 0
BBX 6 12 1 0
BITMAP
C0
C0
60
60
30
30
30
30
18
18
0C
0C
ENDCHAR
STARTCHAR U+005D
ENCODING 93
SWIDTH 1000 0
DWIDTH 8 0
BBX 6 12 1 0
BITMAP
FC
0C
0C
0C
0C
0C
0C
0C
0C
0C
0C
FC
ENDCHAR
STARTCHAR U+005E
ENCODING 94
SWIDTH 1000 0
DWIDTH 8 0
BBX 7 4 0 8
BITMAP
10
28
44
82
ENDCHAR
STARTCHAR U+005F
ENCODING 95
SWIDTH 1000 0
DWIDTH 8 0
BBX 6 1 1 0
BITMAP
FC
ENDCHAR
STARTCHAR U+0060
ENCODING 96
SWIDTH 1000 0
DWIDTH 8 0
BBX 2 4 2 8
BITMAP
C0
C0
80
40
ENDCHAR
STARTCHAR U+0061
ENCODING 97
SWIDTH 1000 0
DWIDTH 8 0
BBX 7 8 0 0
BITMAP
7C
C6
06
7E
C6
C6
C6
7A
ENDCHAR
STARTCHAR U+0062
ENCODING 98
SWIDTH 1000 0
DWIDTH 8 0
BBX 7 12 0 0
BITMAP
C0
C0
C0
C0
DC
E6
C6
C6
C6
C6
C6
FC
ENDCHAR
STARTCHAR U+0063
ENCODING 99
SWIDTH 1000 0
DWIDTH 8 0
BBX 7 8 0 0
BITMAP
7C
C2
C0
C0
C0
C0
C2
7C
ENDCHAR
STARTCHAR U+0064
ENCODING 100
SWIDTH 1000 0
DWIDTH 8 0
BBX 7 12 0 0
BITMAP
06
06
06
06
7E
C6
C6
C6
C6
C6
CE
76
ENDCHAR
STARTCHAR U+0065
ENCODING 101
SWIDTH 1000 0
DWIDTH 8 0
BBX 7 8 0 0
BITMAP
7C
C6
C6
FC
C0
C0
C6
7C
ENDCHAR
STARTCHAR U+0066
ENCODING 102
SWIDTH 1000 0
DWIDTH 8 0
BBX 7 12 0 0
BITMAP
3E
60
60
60
60
FC
60
60
60
60
60
60
ENDCHAR
STARTCHAR U+0067
ENCODING 103
SWIDTH 1000 0
DWIDTH 8 0
BBX 7 12 0 -4
BITMAP
76
CE
C6
C6
C6
C6
CE
76
06
06
C6
7C
ENDCHAR
STARTCHAR U+0068
ENCODING 104
SWIDTH 1000 0
DWIDTH 8 0
BBX 7 12 0 0
BITMAP
C0
C0
C0
C0
DC
E6
C6
C6
C6
C6
C6
C6
ENDCHAR
STARTCHAR U+0069
ENCODING 105
SWIDTH 1000 0
DWIDTH 8 0
BBX 6 11 1 0
BITMAP
30
30
00
F0
30
30
30
30
30
30
FC
ENDCHAR
STARTCHAR U+006A
ENCODING 106
SWIDTH 1000 0
DWIDTH 8 0
BBX 7 14 0 -3
BITMAP
06
06
00
06
06
06
06
06
06
C6
C6
C6
C6
7C
ENDCHAR
STARTCHAR U+006B
ENCODING 107
SWIDTH 1000 0
DWIDTH 8 0
BBX 7 12 0 0
BITMAP
C0
C0
C0
C0
C6
C8
C8
F0
C8
C8
C6
C6
ENDCHAR
STARTCHAR U+006C
ENCODING 108
SWIDTH 1000 0
DWIDTH 8 0
BBX 6 12 1 0
BITMAP
C0
C0
C0
C0
C0
C0
C0
C0
C0
C0
CC
78
ENDCHAR
STARTCHAR U+006D
ENCODING 109
SWIDTH 1000 0
DWIDTH 8 0
BBX 7 8 0 0
BITMAP
EC
D6
D6
D6
D6
C6
C6
C6
ENDCHAR
STARTCHAR U+006E
ENCODING 110
SWIDTH 1000 0
DWIDTH 8 0
BBX 7 8 0 0
BITMAP
DC
E6
C6
C6
C6
C6
C6
C6
ENDCHAR
STARTCHAR U+006F
ENCODING 111
SWIDTH 1000 0
DWIDTH 8 0
BBX 7 8 0 0
BITMAP
7C
C6
C6
C6
C6
C6
C6
7C
ENDCHAR
STARTCHAR U+0070
ENCODING 112
SWIDTH 1000 0
DWIDTH 8 0
BBX 7 12 0 -4
BITMAP
DC
E6
C6
C6
C6
C6
E6
DC
C0
C0
C0
C0
ENDCHAR
STARTCHAR U+0071
ENCODING 113
SWIDTH 1000 0
DWIDTH 8 0
BBX 7 12 0 -4
BITMAP
76
CE
C6
C6
C6
C6
CE
76
06
06
06
06
ENDCHAR
STARTCHAR U+0072
ENCODING 114
SWIDTH 1000 0
DWIDTH 8 0
BBX 7 8 0 0
BITMAP
DC
E2
C0
C0
C0
C0
C0
C0
ENDCHAR
STARTCHAR U+0073
ENCODING 115
SWIDTH 1000 0
DWIDTH 8 0
BBX 7 8 0 0
BITMAP
7C
C6
E0
70
3C
0E
C6
7C
ENDCHAR
STARTCHAR U+0074
ENCODING 116
SWIDTH 1000 0
DWIDTH 8 0
BBX 7 12 0 0
BITMAP
60
60
60
60
60
FE
60
60
60
60
62
3C
ENDCHAR
STARTCHAR U+0075
ENCODING 117
SWIDTH 1000 0
DWIDTH 8 0
BBX 7 8 0 0
BITMAP
C6
C6
C6
C6
C6
C6
CE
76
ENDCHAR
STARTCHAR U+0076
ENCODING 118
SWIDTH 1000 0
DWIDTH 8 0
BBX 7 8 0 0
BITMAP
C6
C6
C6
C6
C6
44
28
10
ENDCHAR
STARTCHAR U+0077
ENCODING 119
SWIDTH 1000 0
DWIDTH 8 0
BBX 7 8 0 0
BITMAP
C6
C6
D6
D6
D6
D6
D6
6C
ENDCHAR
STARTCHAR U+0078
ENCODING 120
SWIDTH 1000 0
DWIDTH 8 0
BBX 7 8 0 0
BITMAP
C6
C6
28
10
10
28
C6
C6
ENDCHAR
STARTCHAR U+0079
ENCODING 121
SWIDTH 1000 0
DWIDTH 8 0
BBX 7 12 0 -4
BITMAP
C6
C6
C6
C6
C6
C6
CE
76
06
C6
C6
7C
ENDCHAR
STARTCHAR U+007A
ENCODING 122
SWIDTH 1000 0
DWIDTH 8 0
BBX 7 8 0 0
BITMAP
FE
06
0C
18
30
60
CC
F2
ENDCHAR
STARTCHAR U+007B
ENCODING 123
SWIDTH 1000 0
DWIDTH 8 0
BBX 6 12 1 0
BITMAP
38
64
60
60
60
60
C0
60
60
60
64
38
ENDCHAR
STARTCHAR U+007C
ENCODING 124
SWIDTH 1000 0
DWIDTH 8 0
BBX 2 12 3 0
BITMAP
C0
C0
C0
C0
C0
C0
C0
C0
C0
C0
C0
C0
ENDCHAR
STARTCHAR U+007D
ENCODING 125
SWIDTH 1000 0
DWIDTH 8 0
BBX 6 12 1 0
BITMAP
70
98
18
18
18
18
0C
18
18
18
98
70
ENDCHAR
STARTCHAR U+007E
ENCODING 126
SWIDTH 1000 0
DWIDTH 8 0
BBX 7 5 0 3
BITMAP
06
66
D6
CC
C0
ENDCHAR
STARTCHAR U+03BB
ENCODING 955
SWIDTH 1000 0
DWIDTH 8 0
BBX 8 12 0 0
BITMAP
60
30
30
18
18
2C
2C
6C
46
C6
83
83
ENDCHAR
ENDFONT
